<svg xmlns="http://www.w3.org/2000/svg" xmlns:xlink="http://www.w3.org/1999/xlink" viewBox="0 0 260.62 281.47"><defs><style>.cls-1{fill:url(#linear-gradient);}.cls-2{fill:#f5ff73;opacity:0.25;}.cls-3{fill:#fff;}.cls-4{fill:url(#linear-gradient-2);}.cls-5{fill:url(#linear-gradient-3);}</style><linearGradient id="linear-gradient" x1="69.92" y1="105" x2="174.92" y2="105" gradientUnits="userSpaceOnUse"><stop offset="0" stop-color="#a8ff00"/><stop offset="1" stop-color="#8a0"/></linearGradient><linearGradient id="linear-gradient-2" x1="72.81" y1="12.5" x2="99.42" y2="12.5" xlink:href="#linear-gradient"/><linearGradient id="linear-gradient-3" x1="45.65" y1="12.5" x2="76.59" y2="12.5" gradientTransform="matrix(-0.95, 0, 0, 1, 216.98, 0)" xlink:href="#linear-gradient"/></defs><title>Asset 2</title><g id="Layer_2" data-name="Layer 2"><g id="Layer_1-2" data-name="Layer 1"><path class="cls-1" d="M174.92,86c0-19-23.5-34.5-52.5-34.5S69.92,67,69.92,86v7.5c0,35.9,23.51,65,52.5,65h0c29,0,52.5-29.1,52.5-65Z"/><path class="cls-2" d="M91.75,94.12S-66.11,237.58,32.3,275.26C153.16,321.52,91.75,94.12,91.75,94.12Z"/><path class="cls-2" d="M98.93,105.73s-5.42,108.05-54.37,83.33C-15.56,158.72,98.93,105.73,98.93,105.73Z"/><circle class="cls-3" cx="88.92" cy="56.5" r="10"/><circle class="cls-3" cx="151.92" cy="56.5" r="10"/><path class="cls-2" d="M144.12,105.21S146.18,211.92,196.4,190C258.07,163,144.12,105.21,144.12,105.21Z"/><path class="cls-4" d="M99.42,15.5c0,5.25-6,9.5-13.3,9.5s-13.31-4.25-13.31-9.5S79.47,0,86.82,0,99.42,10.25,99.42,15.5Z"/><path class="cls-5" d="M144.42,15.5c0,5.25,6.56,9.5,14.66,9.5s14.65-4.25,14.65-9.5S166.4,0,158.3,0,144.42,10.25,144.42,15.5Z"/><path class="cls-2" d="M152.46,94.22s173,120.27,81.44,171.06C121.53,327.65,152.46,94.22,152.46,94.22Z"/></g></g></svg>