<svg xmlns="http://www.w3.org/2000/svg" xmlns:xlink="http://www.w3.org/1999/xlink" viewBox="0 0 414.25 200.72"><defs><style>.cls-1{fill:url(#linear-gradient);}.cls-2{fill:#f5ff73;opacity:0.25;}.cls-3{fill:#fff;}.cls-4{fill:url(#linear-gradient-2);}.cls-5{fill:url(#linear-gradient-3);}</style><linearGradient id="linear-gradient" x1="153.78" y1="112.77" x2="258.78" y2="112.77" gradientUnits="userSpaceOnUse"><stop offset="0" stop-color="#a8ff00"/><stop offset="1" stop-color="#8a0"/></linearGradient><linearGradient id="linear-gradient-2" x1="144.28" y1="49.27" x2="163.28" y2="49.27" xlink:href="#linear-gradient"/><linearGradient id="linear-gradient-3" x1="120.33" y1="49.27" x2="139.33" y2="49.27" gradientTransform="matrix(-0.95, 0, 0, 1, 380.28, 0)" xlink:href="#linear-gradient"/></defs><title>Asset 1</title><g id="Layer_2" data-name="Layer 2"><g id="Layer_1-2" data-name="Layer 1"><path class="cls-1" d="M258.78,93.77c0-19.06-23.51-34.5-52.5-34.5s-52.5,15.44-52.5,34.5v7.5c0,35.9,23.5,65,52.5,65h0c29,0,52.5-29.1,52.5-65Z"/><path class="cls-2" d="M182.09,109.9S60.83-65.59,10.44,27C-51.45,140.6,182.09,109.9,182.09,109.9Z"/><path class="cls-2" d="M182.79,113.5s-5.42,108.05-54.37,83.33C68.3,166.48,182.79,113.5,182.79,113.5Z"/><circle class="cls-3" cx="172.78" cy="64.27" r="10"/><circle class="cls-3" cx="235.78" cy="64.27" r="10"/><path class="cls-2" d="M228.79,109.47s128-167,176-73.32C463.69,151.15,228.79,109.47,228.79,109.47Z"/><path class="cls-2" d="M228,113s2.07,106.71,52.29,84.76C341.93,170.79,228,113,228,113Z"/><path class="cls-4" d="M163.28,52.27a9.5,9.5,0,1,1-19,0c0-5.25,4.75-15.5,10-15.5S163.28,47,163.28,52.27Z"/><path class="cls-5" d="M248.28,52.27a9,9,0,1,0,18,0c0-5.25-4.5-15.5-9.48-15.5S248.28,47,248.28,52.27Z"/></g></g></svg>